<svg version="1.2" xmlns="http://www.w3.org/2000/svg" viewBox="0 0 1816 640" width="1816" height="640"><style>.a{fill:#ba1b02}.b{fill:#fff}.c{fill:#b4b4b4}.d{fill:#dedede}</style><path class="a" d="m0 0h1816v640h-1816z"/><path class="b" d="m376.4 289.1l-7.3 3.5-7.3-3.5-102.2-50.5 48.4-18.5 104.9 50.9zm102.3-50.5l-36.6 17.8-106-47.2 32.9-12.7z"/><path class="b" d="m373 163.9l134.1 51.8-18.8 15.1-119.2-46.2-119.2 46.2-18.9-15.1 134.2-51.8zm118.4 71.4l22.2-8.6-16.7 137.5-3.3 6.1-117.7 105.8-3.8-24.3 104.8-94.2zm-246.8 135.1l-3.4-6.2-16.7-137.4 22.2 8.5 14.7 122.5 104.7 94.1-3.7 24.3z"/><path class="c" d="m445 260.7l33.8-20.6-13.3 110.7-95.7 86.1 5.3-133.4 42-25.8-2.8 65.4 26.1-18.4z"/><path class="d" d="m363.1 303.5l5.3 133.3-95.6-86-13.5-110.7z"/><path class="b" d="m1454.1 277.3q11.5 5.1 18.4 15 6.9 9.9 7.1 25.4v86.8h-27.5v-86.6q-0.6-8.2-5.9-13-5.2-4.9-13-6.6-7.5-1.8-15.2-0.8-7.7 1-13.2 4.2v102.8h-27.7v-123.9q4.3-0.6 7.2-1.5 4.4-1.4 13.5-4.4 8.7-2.9 22.6-3.4 0.9-0.2 1.8 0 3.4-0.2 7 0.1 13.5 0.9 24.9 5.9z"/><path class="b" d="m1372.6 280.9l-43.6 123.6h-29.4l-43.6-123.6q14.4 0 26.6-7.7l26.4 76.4 4.3 26.1h2l4.3-26.1 26.4-76.4q12.2 7.7 26.6 7.7z"/><path class="b" d="m920 332.1q9.8 3.9 16.1 11.9 6.3 8.1 6.6 22-0.3 15.3-8.1 25.1-8 9.6-20.3 13.5-12.4 4-26.1 2.2-13.7-1.9-25.4-9.7-11.5-7.6-18.1-21.3l20.8-13.4q5.2 8.8 13.2 13.4 8.1 4.9 16.2 5.4 8.2 0.6 14.1-3.1 5.7-3.5 6.2-11.6-0.2-4.9-3.3-7.5-3.2-2.9-7.9-4.6-4.8-1.4-9.5-2.4-7-1.3-15.1-3.7-7.8-2.4-15.1-6.8-7.2-4.3-11.8-11.7-3.9-6.3-4.4-15.7 0-0.2 0-0.5-0.1-1-0.1-2.2 0.2-14.5 7.7-23.3 7.4-8.9 18.5-12.9 11.2-3.9 22.7-3.8 10.7 0 21.8 4.5 11.2 4.7 21.1 14.2l-16.8 18.3q-5.5-5.5-13.3-8.2-7.7-3-15.3-3.1-7.5 0-12.8 2.9-5.2 3-6.1 9.2-0.3 5.7 3.3 9.2 3.8 3.6 9.4 5.3 5.5 1.9 11.1 2.7 10.8 1.5 20.7 5.7z"/><path class="b" d="m978.9 229.8q4.9 4.9 5 12.8-0.1 7.5-5 12.4-4.8 5.1-12.8 5.2-7.4-0.1-12.3-5.2-4.9-4.9-5-12.4 0.1-7.9 5-12.8 4.9-4.8 12.3-5.1 8 0.3 12.8 5.1z"/><path class="b" d="m1050.1 379.4c0-0.4 0-154.4 0-154.4h27.9v101.1l13-14.4 0.2-0.3 33.9-38.1h34.9l-54.8 60.5 54.5 70.7h-32.7l-41.3-53.8-7.7 7.9v45.9l-26.8 1c-0.7 0-0.8 0-1.5 0-0.8 0-1.7-0.1-1.7-0.1l-1.5-0.1q-26.7-1.9-37.8-12-13-11.9-13.1-32.9v-135.4h27.8v135.4q-0.1 8.2 5.5 13.5c3 2.9 10.8 4.8 21.2 5.5z"/><path class="b" d="m980.7 404.5h-27.9v-131.6h27.9z"/><path class="b" d="m797 265h-27.4l18-29.6h34.4z"/><path fill-rule="evenodd" class="b" d="m1591.4 314.7v84.2q-11.9 4.5-25.8 7-13.8 2.4-27.5 1.8-13.6-0.5-24.9-5.4-11.3-4.8-17.9-14.9-6.8-10.2-7.1-26.8 0.4-15.4 7.9-24.9 7.5-9.7 19.2-13.9 11.6-4.3 24.3-3.6 12.9 0.6 24.1 5.3v-8q-1.9-9-8.4-14-6.3-4.9-15-5.7-8.6-0.8-17.3 1.9-8.5 3-14.7 9.3l-16.2-14.8q10.7-11.7 22.9-16.4 12-4.7 24.7-4.4 13.2 0 24.8 4.5 11.7 4.7 19.3 14.5 7.4 9.5 7.6 24.3zm-27.7 32.8q-5.5-2.7-13.3-3.9-7.8-1.2-15.5-0.3-7.8 0.8-13.2 5-5.3 4.1-6.1 12.3-0.3 9.9 4.1 15.2 4.6 5.4 12 7.1 7.5 1.8 16 1.2 8.4-0.8 16-2.9z"/><path fill-rule="evenodd" class="b" d="m1256.5 316.4v45.9q-0.3 15.3-7.8 25.3-7.3 10.1-19.1 15.1-11.7 5-24.5 5.1-3 0-5.9-0.2-10-1.1-19.2-4.9-5.8-2.5-10.6-6.2-4.8-3.8-8.6-8.9-7.5-10-7.8-25.3v-45.9q0.3-15.1 7.8-25.1 3-4.1 6.8-7.2 5.5-5 12.4-8 9.2-3.8 19.2-4.7 2.9-0.4 5.9-0.4 12.8 0.1 24.5 5.1 11.8 5.2 19.1 15.2 3.9 5.1 5.8 11.3 1.9 6.3 2 13.8zm-27.9 0q-0.1-6.2-3.7-10.3-3.5-4-8.9-5.9-5.3-2.1-10.9-2.1-3 0-5.9 0.5-2.9 0.5-5.6 1.6-5.5 1.9-9.1 5.9-3.5 4.1-3.6 10.3v45.9q0.1 6.3 3.6 10.6 3.6 4.4 9.1 6.8 2.7 1 5.6 1.6 2.9 0.5 5.9 0.5 5.6 0 10.9-2.1 5.4-2.5 8.9-6.8 3.6-4.3 3.7-10.6z"/><path fill-rule="evenodd" class="b" d="m837.3 314.7v84.2q-11.9 4.5-25.8 7-13.9 2.4-27.6 1.8-11.5-0.4-21.4-4-1.8-0.6-3.4-1.4-6.6-2.7-11.5-7.3-2.6-2.4-4.7-5.2-3.1-4.3-5.1-9.3v24h-127.9l-7.9-19.3 99.5-131.3h-94.2v-28.8h125.2l9 19-99.9 132.1h94.7q-2-6.9-2.2-15.6 0.4-15.4 7.9-24.9 7.5-9.7 19.1-13.9 0.7-0.2 1.4-0.5 11.1-3.8 23-3.1 12.9 0.6 24.1 5.3v-8q-1.9-9-8.4-13.9-6.3-5-15-5.8-8.6-0.8-17.3 1.9-3.3 1.2-6.4 3-4.5 2.5-8.3 6.3l-16.3-14.8q10.8-11.7 23-16.4 0.7-0.4 1.6-0.6 11.3-4.1 23.1-3.8 13.2 0 24.7 4.5 11.8 4.7 19.4 14.5 7.4 9.5 7.6 24.3zm-27.7 32.8q-5.5-2.7-13.3-3.8-7.8-1.3-15.5-0.4-7.9 0.9-13.2 5-3.6 2.7-5.1 7.4-0.7 2.1-1 4.9-0.2 5.4 1 9.5 1 3.3 3.1 5.8 4.5 5.3 12 7.1 7.5 1.7 16 1.1 8.4-0.8 16-2.9z"/></svg>