<?xml version="1.0" encoding="UTF-8" standalone="no"?>
<!-- Created with Inkscape (http://www.inkscape.org/) -->

<svg
   version="1.1"
   id="svg824"
   xml:space="preserve"
   width="1035.0647"
   height="246.33736"
   viewBox="0 0 1035.0647 246.33735"
   sodipodi:docname="AERO Vodochody logo.svg"
   inkscape:version="1.1 (c68e22c387, 2021-05-23)"
   xmlns:inkscape="http://www.inkscape.org/namespaces/inkscape"
   xmlns:sodipodi="http://sodipodi.sourceforge.net/DTD/sodipodi-0.dtd"
   xmlns="http://www.w3.org/2000/svg"
   xmlns:svg="http://www.w3.org/2000/svg"><defs
     id="defs828"><clipPath
       clipPathUnits="userSpaceOnUse"
       id="clipPath844"><path
         d="m 42.52,738.9128 h 155.905 v 46.284 H 42.52 Z"
         id="path842" /></clipPath></defs><sodipodi:namedview
     id="namedview826"
     pagecolor="#ffffff"
     bordercolor="#666666"
     borderopacity="1.0"
     inkscape:pageshadow="2"
     inkscape:pageopacity="0.0"
     inkscape:pagecheckerboard="0"
     showgrid="false"
     inkscape:zoom="1"
     inkscape:cx="534.5"
     inkscape:cy="194.5"
     inkscape:window-width="1920"
     inkscape:window-height="1002"
     inkscape:window-x="-8"
     inkscape:window-y="-8"
     inkscape:window-maximized="1"
     inkscape:current-layer="g830" /><g
     id="g830"
     inkscape:groupmode="layer"
     inkscape:label="protikorupcnikodex-2017-a4web"
     transform="matrix(1.3333333,0,0,-1.3333333,284.85206,1352.9924)"><g
       id="g838"
       transform="matrix(5,0,0,5,-427.31955,-2909.1572)"><g
         id="g840"
         clip-path="url(#clipPath844)"><path
           d="m 116.8484,767.4987 c -1.0032,0.02 -2.0707,-0.3411 -3.2689,-0.9484 l 1.1888,-1.9019 c 0.5409,0.3765 0.9232,0.5899 1.4253,0.5938 1.5493,0.013 2.4401,-1.2096 2.4401,-3.2177 0,-3.4109 -4.5197,-11.2237 -8.9179,-11.2237 -1.5603,0 -2.3775,1.0909 -2.3775,3.0895 0,3.2692 2.3475,7.9644 5.7658,10.2216 l -1.3073,1.6063 -1.397,-0.7431 c -1.4224,-0.7556 -2.6159,-0.7726 -3.4174,0.2671 -1.238,1.605 -1.1893,2.6747 -2.6157,2.6747 -1.4252,0 -3.2383,-1.4861 -4.0409,-1.4861 l 0.3558,1.3152 -4.6942,-0.007 c -6.9072,-11.0885 -11.8951,-16.7028 -15.0366,-16.7028 -1.3224,0 -2.3495,0.4138 -3.0914,1.0132 6.1234,5.2832 9.5687,8.3861 9.5687,12.1218 0,2.0545 -1.1484,4.21 -3.5643,4.2221 -6.063,0 -10.3555,-9.3638 -10.4157,-14.7727 l -0.0447,-1.9889 c -1.1046,-0.8327 -2.5109,-1.2509 -4.2207,-1.2464 -2.9983,0.004 -5.1565,0.9226 -6.4771,2.8522 7.2627,6.7531 10.8155,12.6599 10.8155,17.8294 0,1.751 -0.4684,2.8796 -1.4253,3.3879 0.2359,1.2125 0.3953,2.2372 0.4764,3.0766 0.0783,0.8182 0.0801,1.475 0.0645,1.869 0,3.374 -2.1983,5.3834 -5.9678,5.3799 -11.4389,-0.0138 -23.9328,-13.4711 -23.9328,-26.1934 0,-6.9382 3.2031,-10.5874 7.845,-10.5789 3.2053,0.006 6.0538,0.6306 8.9744,2.4961 1.94,-1.7823 4.1982,-2.6744 6.7749,-2.6744 2.6193,0 5.1921,0.9017 7.7261,2.3756 0.7019,-1.4937 1.9301,-2.2578 3.6851,-2.2578 3.4643,0 8.3672,2.9381 13.1941,9.2724 l -3.5076,-8.737 5.4683,0.06 c 4.0216,11.0876 5.9242,16.9363 8.7962,16.9363 0.5441,0 1.2565,-0.7442 2.1403,-2.1378 0.5349,-0.8468 0.9204,-1.1598 2.1979,-0.5366 1.3377,0.6532 1.7531,0.0317 1.0109,-0.8898 -2.6691,-3.3111 -3.8405,-6.2929 -3.863,-8.6775 0.0127,-3.2529 1.5116,-5.1565 4.5162,-5.1706 5.766,-0.0311 12.6593,7.2336 12.6593,15.215 0,2.7028 -1.5335,4.1846 -3.5058,4.2172 z M 58.347,752.5448 c -1.7334,-1.1094 -3.2791,-1.6584 -4.6368,-1.6511 -3.3448,-0.004 -5.77,2.3394 -5.7772,6.5693 -0.0182,10.1551 9.4235,24.2189 18.7026,24.2189 2.2161,0 3.6037,-1.2792 3.6037,-3.2359 0,-0.8026 -0.2329,-3.3333 -0.2329,-3.3333 -6.8258,0 -12.6294,-7.8489 -12.6294,-16.4278 0,-2.2272 0.3418,-4.2756 0.97,-6.1401 z m 3.6186,5.9885 c -0.0133,5.025 4.1279,12.6521 7.1794,12.6821 -0.4834,-1.2656 -1.0891,-2.4508 -1.665,-3.6338 -0.2278,-0.4673 0.2746,-0.8372 0.5981,-0.5097 0.7632,0.7726 1.512,1.8121 2.2465,3.1202 0.0994,-0.3745 0.1372,-0.7622 0.1344,-1.1627 -0.0128,-2.7542 -2.5829,-7.5608 -8.4071,-13.4762 -0.0348,0.9763 -0.0835,1.9001 -0.0863,2.9801 z m 15.44,-3.8546 c 0.0312,5.3749 3.8289,11.2399 5.8139,11.2427 0.5132,0 1.0132,-0.4488 0.9905,-1.3635 -0.0464,-1.9657 -2.2957,-5.2486 -6.8044,-9.8792"
           style="fill:#087ab6;fill-opacity:1;fill-rule:nonzero;stroke:none"
           id="path846" /><path
           d="m 126.495,764.6484 h 0.8435 v 10.4453 h -0.8435 z"
           style="fill:#087ab6;fill-opacity:1;fill-rule:nonzero;stroke:none"
           id="path848" /><path
           d="m 137.2601,768.0253 h -0.827 l -2.3036,7.0088 h 1.1026 l 1.6142,-5.0982 1.6154,5.0982 h 1.1225"
           style="fill:#087ab6;fill-opacity:1;fill-rule:nonzero;stroke:none"
           id="path850" /><path
           d="m 145.6486,768.7153 c -0.4823,-0.4834 -1.1028,-0.7488 -1.8516,-0.7488 -0.7471,0 -1.3579,0.2654 -1.8407,0.7488 -0.6887,0.6872 -0.6791,1.4646 -0.6791,2.8145 0,1.3503 -0.01,2.1277 0.6791,2.8157 0.4828,0.4834 1.0936,0.7494 1.8407,0.7494 0.7488,0 1.3693,-0.266 1.8516,-0.7494 0.6893,-0.688 0.6694,-1.4654 0.6694,-2.8157 0,-1.3499 0.0199,-2.1273 -0.6694,-2.8145 z m -0.8073,4.9903 c -0.2462,0.2671 -0.6311,0.4336 -1.0443,0.4336 -0.4126,0 -0.7975,-0.1665 -1.0432,-0.4336 -0.3452,-0.3744 -0.4125,-0.7669 -0.4125,-2.1758 0,-1.4085 0.0673,-1.8016 0.4125,-2.1771 0.2457,-0.2661 0.6306,-0.4336 1.0432,-0.4336 0.4132,0 0.7981,0.1675 1.0443,0.4336 0.3442,0.3755 0.4137,0.7686 0.4137,2.1771 0,1.4089 -0.0695,1.8014 -0.4137,2.1758"
           style="fill:#087ab6;fill-opacity:1;fill-rule:nonzero;stroke:none"
           id="path852" /><path
           d="m 153.1504,768.6851 c -0.442,-0.4424 -1.0828,-0.6598 -1.8119,-0.6598 h -2.4614 v 7.0088 h 2.4614 c 0.7291,0 1.3699,-0.2174 1.8119,-0.6598 0.7585,-0.7582 0.7098,-1.7804 0.7098,-2.7947 0,-1.0162 0.0487,-2.1364 -0.7098,-2.8945 z m -0.7278,4.9206 c -0.2955,0.3266 -0.6901,0.4749 -1.1909,0.4749 h -1.2899 v -5.1012 h 1.2899 c 0.5008,0 0.8954,0.1497 1.1909,0.4743 0.3639,0.4015 0.3746,1.1597 0.3746,2.1259 0,0.9645 -0.0107,1.6251 -0.3746,2.0261"
           style="fill:#087ab6;fill-opacity:1;fill-rule:nonzero;stroke:none"
           id="path854" /><path
           d="m 160.5342,768.7153 c -0.4817,-0.4834 -1.1027,-0.7488 -1.8504,-0.7488 -0.7489,0 -1.3585,0.2654 -1.8419,0.7488 -0.6881,0.6872 -0.6773,1.4646 -0.6773,2.8145 0,1.3503 -0.0108,2.1277 0.6773,2.8157 0.4834,0.4834 1.093,0.7494 1.8419,0.7494 0.7477,0 1.3687,-0.266 1.8504,-0.7494 0.6893,-0.688 0.67,-1.4654 0.67,-2.8157 0,-1.3499 0.0193,-2.1273 -0.67,-2.8145 z m -0.8067,4.9903 c -0.2462,0.2671 -0.63,0.4336 -1.0437,0.4336 -0.4132,0 -0.7981,-0.1665 -1.0443,-0.4336 -0.3441,-0.3744 -0.4127,-0.7669 -0.4127,-2.1758 0,-1.4085 0.0686,-1.8016 0.4127,-2.1771 0.2462,-0.2661 0.6311,-0.4336 1.0443,-0.4336 0.4137,0 0.7975,0.1675 1.0437,0.4336 0.3448,0.3755 0.4137,0.7686 0.4137,2.1771 0,1.4089 -0.0689,1.8014 -0.4137,2.1758"
           style="fill:#087ab6;fill-opacity:1;fill-rule:nonzero;stroke:none"
           id="path856" /><path
           d="m 166.0278,767.9665 c -0.729,0 -1.3585,0.2654 -1.8401,0.7488 -0.6898,0.6872 -0.6792,1.4646 -0.6792,2.8145 0,1.3503 -0.0106,2.1277 0.6792,2.8157 0.4816,0.4834 1.1111,0.7494 1.8401,0.7494 1.2901,0 2.255,-0.7582 2.5013,-2.1562 h -1.0828 c -0.1676,0.7083 -0.6397,1.2005 -1.4185,1.2005 -0.4132,0 -0.7879,-0.1571 -1.0334,-0.4242 -0.3444,-0.3749 -0.4229,-0.7763 -0.4229,-2.1852 0,-1.4085 0.0785,-1.8101 0.4229,-2.1845 0.2455,-0.2672 0.6202,-0.4262 1.0334,-0.4262 0.7788,0 1.2611,0.4933 1.4292,1.2022 h 1.0721 c -0.2361,-1.3969 -1.2304,-2.1548 -2.5013,-2.1548"
           style="fill:#087ab6;fill-opacity:1;fill-rule:nonzero;stroke:none"
           id="path858" /><path
           d="m 174.8402,768.0253 v 3.0622 h -2.8442 v -3.0622 h -1.0653 v 7.0088 h 1.0653 v -2.9909 h 2.8442 v 2.9909 h 1.063 v -7.0088"
           style="fill:#087ab6;fill-opacity:1;fill-rule:nonzero;stroke:none"
           id="path860" /><path
           d="m 182.8346,768.7153 c -0.4828,-0.4834 -1.1033,-0.7488 -1.8503,-0.7488 -0.7488,0 -1.3597,0.2654 -1.8418,0.7488 -0.6889,0.6872 -0.6805,1.4646 -0.6805,2.8145 0,1.3503 -0.008,2.1277 0.6805,2.8157 0.4821,0.4834 1.093,0.7494 1.8418,0.7494 0.747,0 1.3675,-0.266 1.8503,-0.7494 0.6893,-0.688 0.6696,-1.4654 0.6696,-2.8157 0,-1.3499 0.0197,-2.1273 -0.6696,-2.8145 z m -0.8071,4.9903 c -0.2456,0.2671 -0.6306,0.4336 -1.0432,0.4336 -0.4137,0 -0.7986,-0.1665 -1.0437,-0.4336 -0.3454,-0.3744 -0.4137,-0.7669 -0.4137,-2.1758 0,-1.4085 0.0683,-1.8016 0.4137,-2.1771 0.2451,-0.2661 0.63,-0.4336 1.0437,-0.4336 0.4126,0 0.7976,0.1675 1.0432,0.4336 0.3435,0.3755 0.4138,0.7686 0.4138,2.1771 0,1.4089 -0.0703,1.8014 -0.4138,2.1758"
           style="fill:#087ab6;fill-opacity:1;fill-rule:nonzero;stroke:none"
           id="path862" /><path
           d="m 190.3358,768.6851 c -0.4418,-0.4424 -1.082,-0.6598 -1.8099,-0.6598 h -2.4621 v 7.0088 h 2.4621 c 0.7279,0 1.3681,-0.2174 1.8099,-0.6598 0.7581,-0.7582 0.71,-1.7804 0.71,-2.7947 0,-1.0162 0.0481,-2.1364 -0.71,-2.8945 z m -0.7272,4.9206 c -0.2954,0.3266 -0.6904,0.4749 -1.1926,0.4749 h -1.2894 v -5.1012 h 1.2894 c 0.5022,0 0.8972,0.1497 1.1926,0.4743 0.3641,0.4015 0.3725,1.1597 0.3725,2.1259 0,0.9645 -0.008,1.6251 -0.3725,2.0261"
           style="fill:#087ab6;fill-opacity:1;fill-rule:nonzero;stroke:none"
           id="path864" /><path
           d="m 195.8982,770.9105 v -2.8852 h -1.063 v 2.8852 l -2.0959,4.1236 h 1.1608 l 1.4671,-3.0801 1.4678,3.0801 h 1.1608"
           style="fill:#087ab6;fill-opacity:1;fill-rule:nonzero;stroke:none"
           id="path866" /></g></g></g></svg>
