<?xml version="1.0" encoding="UTF-8"?>
<!DOCTYPE svg PUBLIC "-//W3C//DTD SVG 1.1//EN" "http://www.w3.org/Graphics/SVG/1.1/DTD/svg11.dtd">
<!-- Creator: CorelDRAW 2019 (64-Bit) -->
<svg xmlns="http://www.w3.org/2000/svg" xml:space="preserve" width="72mm" height="22.9998mm" version="1.1" style="shape-rendering:geometricPrecision; text-rendering:geometricPrecision; image-rendering:optimizeQuality; fill-rule:evenodd; clip-rule:evenodd"
viewBox="0 0 7200 2299.98"
 xmlns:xlink="http://www.w3.org/1999/xlink">
 <defs>
  <style type="text/css">
   <![CDATA[
    .fil1 {fill:#FEFEFE;fill-rule:nonzero}
    .fil0 {fill:#0072B6;fill-rule:nonzero}
   ]]>
  </style>
 </defs>
 <g id="Vrstva_x0020_1">
  <metadata id="CorelCorpID_0Corel-Layer"/>
  <g id="_2425249927296">
   <g>
    <path class="fil0" d="M2100.02 1150c0,-441.83 -358.16,-799.99 -800.03,-799.99 -441.86,0 -800.02,358.16 -800.02,799.99 0,441.82 358.16,799.97 800.02,799.97 441.87,0 800.03,-358.15 800.03,-799.97z"/>
    <g>
     <g>
      <path class="fil1" d="M1197.33 1266.88l-24.53 -56.64 -196.89 0 -127.43 293.7 -127.92 0 0 52.81 327.29 0 0 -52.81 -137.74 0 102.91 -237.06 184.31 0zm554.18 237.06l0 0 -420.85 -970.41 -61.26 0 -118.17 272.27 302.83 698.14 -154.07 0 0 52.81 579.47 0 0 -52.81 -127.95 0z"/>
     </g>
    </g>
   </g>
   <g>
    <path class="fil0" d="M2410.04 867.78l-28.25 82.09 -73.21 0 145.28 -388.19 72.62 0 148.62 388.19 -75.92 0 -28.88 -82.09 -160.26 0zm79.86 -229.55l0 0 -59.88 173.01 120.3 0 -60.42 -173.01z"/>
    <polygon class="fil0" points="2831.44,826.74 2798.71,863.33 2798.71,949.87 2732.23,949.87 2732.23,532.88 2798.71,532.88 2798.71,782.92 2899.1,659.31 2981.72,659.31 2874.16,779.06 3000.05,949.87 2919.64,949.87 "/>
    <path class="fil0" d="M3040.49 690.32c29.97,-24.94 71.52,-39.34 114.79,-39.34 82.61,0 118.65,35.48 118.65,106.45l0 123.68c0,14.4 4.96,22.18 16.05,22.18l12.2 0 -5.51 43.24c-7.24,6.1 -20.54,7.75 -33.83,7.75 -22.19,0 -37.69,-7.75 -46.03,-31.59 -19.43,21.6 -46.03,35.49 -87.02,35.49 -57.67,0 -102.6,-27.19 -102.6,-89.82 0,-59.91 50.99,-84.89 114.24,-84.89 28.8,0 59.33,4.48 65.94,6.14l0 -28.32c0,-43.76 -23.29,-55.44 -59.32,-55.44 -33.83,0 -59.88,9.44 -80.96,26.64l-26.6 -42.17zm167.43 142.52l0 0c-13.29,-3.34 -34.38,-6.1 -58.77,-6.1 -34.93,0 -59.32,9.99 -59.32,39.38 0,31.59 24.94,41.58 50.43,41.58 28.87,0 53.82,-11.09 67.66,-34.93l0 -39.93z"/>
    <path class="fil0" d="M3562.29 949.87l-8.89 -33.83 -1.1 0c-19.99,24.39 -50.51,42.14 -86.55,42.14 -60.42,0 -128.64,-43.24 -128.64,-154.17 0,-104.8 63.26,-153.03 126.99,-153.03 41.07,0 64.91,14.95 79.31,27.69l0 -145.79 66.54 0 0 416.99 -47.66 0zm-18.88 -208.49l0 0c-17.23,-19.99 -37.69,-29.98 -63.81,-29.98 -39.34,0 -74.82,28.29 -74.82,92.05 0,64.33 37.13,93.71 73.17,93.71 27.77,0 51.06,-14.95 65.46,-36.58l0 -119.2z"/>
    <path class="fil0" d="M3934.83 917.69c-29.91,24.95 -68.22,40.49 -120.31,40.49 -76,0 -139.73,-49.37 -139.73,-151.97 0,-94.81 55.47,-155.23 137.53,-155.23 89.23,0 132.5,67.66 132.5,137.52 0,12.75 -1.1,27.15 -3.86,39.35l-199.06 0c7.72,55.46 39.9,75.99 82.61,75.99 34.39,0 62.64,-12.78 82.62,-29.97l27.7 43.82zm-51.54 -134.77l0 0c-1.65,-48.23 -27.7,-79.27 -69.32,-79.27 -41.06,0 -68.76,25.49 -73.72,79.27l143.04 0z"/>
    <path class="fil0" d="M4071.25 699.76c22.19,-33.28 48.79,-47.68 86.48,-47.68 41.06,0 68.21,16.64 83.71,52.67 24.39,-36.03 55.47,-52.67 95.43,-52.67 58.77,0 94.26,36.03 94.26,99.25l0 198.54 -67.66 0 0 -190.79c0,-32.14 -14.95,-48.23 -42.17,-48.23 -26.6,0 -49.34,14.95 -66.49,47.13l0 191.89 -68.22 0 0 -191.89c0,-34.93 -19.43,-47.13 -42.16,-47.13 -28.25,0 -51.54,18.88 -66.56,47.13l0 191.89 -68.21 0 0 -290.56 52.15 0 7.24 40.45 2.2 0z"/>
    <path class="fil0" d="M4590.78 581.11c0,26.59 -20.54,37.69 -41.62,37.69 -20.47,0 -40.45,-11.1 -40.45,-37.69 0,-26.63 19.98,-38.28 40.45,-38.28 21.08,0 41.62,11.65 41.62,38.28zm-74.28 368.76l0 0 0 -290.56 65.94 0 0 290.56 -65.94 0z"/>
    <path class="fil0" d="M4914.06 917.69c-29.97,24.95 -68.21,40.49 -120.37,40.49 -75.93,0 -139.73,-49.37 -139.73,-151.97 0,-94.81 55.46,-155.23 137.53,-155.23 89.29,0 132.56,67.66 132.56,137.52 0,12.75 -1.1,27.15 -3.92,39.35l-199.06 0c7.78,55.46 39.96,75.99 82.61,75.99 34.38,0 62.7,-12.78 82.61,-29.97l27.77 43.82zm-51.61 -134.77l0 0c-1.65,-48.23 -27.69,-79.27 -69.31,-79.27 -41,0 -68.76,25.49 -73.73,79.27l143.04 0z"/>
    <polygon class="fil0" points="5284.96,949.87 5223.43,949.87 5108.64,658.73 5179.61,658.73 5255.06,879.45 5330.99,659.31 5403.61,659.31 "/>
    <path class="fil0" d="M5687.55 917.69c-29.97,24.95 -68.21,40.49 -120.37,40.49 -75.93,0 -139.73,-49.37 -139.73,-151.97 0,-94.81 55.47,-155.23 137.53,-155.23 89.29,0 132.49,67.66 132.49,137.52 0,12.75 -1.1,27.15 -3.85,39.35l-199.06 0c7.79,55.46 39.9,75.99 82.61,75.99 34.39,0 62.64,-12.78 82.62,-29.97l27.76 43.82zm-209.67 -369.31l0 0 54.92 0 28.32 31.63 29.35 -31.63 52.16 0 -59.87 69.87 -41.62 0 -63.26 -69.87zm158.07 234.54l0 0c-1.66,-48.23 -27.7,-79.27 -69.32,-79.27 -40.99,0 -68.76,25.49 -73.72,79.27l143.04 0z"/>
    <path class="fil0" d="M5973.64 949.87l-8.89 -33.83 -1.1 0c-19.99,24.39 -50.44,42.14 -86.55,42.14 -60.42,0 -128.63,-43.24 -128.63,-154.17 0,-104.8 63.24,-153.03 126.98,-153.03 41.06,0 64.91,14.95 79.31,27.69l0 -145.79 66.55 0 0 416.99 -47.67 0zm-18.88 -208.49l0 0c-17.16,-19.99 -37.69,-29.98 -63.74,-29.98 -39.41,0 -74.9,28.29 -74.9,92.05 0,64.33 37.15,93.71 73.18,93.71 27.77,0 51.06,-14.95 65.46,-36.58l0 -119.2z"/>
    <path class="fil0" d="M2632.45 1516.31c-31.07,28.25 -79.85,48.78 -138.63,48.78 -98.18,0 -185.79,-64.91 -186.34,-202.4 -0.55,-137.5 84.85,-202.39 190.2,-202.39 50.99,0 97.57,13.85 126.44,36.04l-32.73 54.35c-26.05,-17.78 -58.77,-26.63 -92.6,-26.63 -63.19,0 -117.55,43.23 -117.55,138.63 0,97.6 55.46,138.63 118.1,138.08 38.79,0 69.86,-11.65 98.18,-34.94l34.93 50.48zm-225.72 -461.91l0 0 54.91 0 28.26 31.62 29.42 -31.62 52.09 0 -59.88 69.86 -41.62 0 -63.18 -69.86z"/>
    <path class="fil0" d="M2920.19 1524.61c-29.97,24.97 -68.21,40.48 -120.37,40.48 -75.93,0 -139.74,-49.33 -139.74,-151.93 0,-94.81 55.47,-155.27 137.53,-155.27 89.3,0 132.57,67.63 132.57,137.53 0,12.74 -1.1,27.18 -3.93,39.37l-199.06 0c7.79,55.43 39.97,75.93 82.62,75.93 34.38,0 62.7,-12.74 82.61,-29.9l27.77 43.79zm-51.61 -134.74l0 0c-1.65,-48.23 -27.7,-79.31 -69.32,-79.31 -40.99,0 -68.76,25.5 -73.72,79.31l143.04 0z"/>
    <path class="fil0" d="M2998.32 1481.92c23.29,17.16 54.92,26.05 80.96,26.05 37.14,0 56.57,-14.95 56.57,-35.49 0,-26.59 -32.17,-28.83 -73.72,-43.27 -48.85,-17.15 -76.55,-37.69 -76.55,-84.26 0,-54.37 45.47,-87.06 110.93,-87.06 39.89,0 77.03,12.19 100.87,29.94l-21.64 46.02c-22.11,-13.3 -51.53,-22.73 -77.58,-22.73 -29.97,0 -48.23,12.74 -48.23,32.17 0,24.94 27.15,31.04 64.29,42.13 48.78,14.44 88.74,32.7 88.74,84.86 0,59.88 -47.68,94.81 -118.65,94.81 -40.51,0 -80.41,-13.3 -103.69,-31.63l17.7 -51.54z"/>
    <polygon class="fil0" points="3361.5,1433.69 3328.78,1470.28 3328.78,1556.75 3262.28,1556.75 3262.28,1139.76 3328.78,1139.76 3328.78,1389.87 3429.17,1266.19 3511.78,1266.19 3404.22,1385.98 3530.11,1556.75 3449.7,1556.75 "/>
    <path class="fil0" d="M3802.88 1524.61c-29.97,24.97 -68.21,40.48 -120.37,40.48 -75.93,0 -139.72,-49.33 -139.72,-151.93 0,-94.81 55.45,-155.27 137.52,-155.27 89.29,0 132.56,67.63 132.56,137.53 0,12.74 -1.1,27.18 -3.93,39.37l-199.05 0c7.78,55.43 39.96,75.93 82.61,75.93 34.38,0 62.7,-12.74 82.61,-29.9l27.77 43.79zm-51.61 -134.74l0 0c-1.65,-48.23 -27.7,-79.31 -69.31,-79.31 -41,0 -68.77,25.5 -73.73,79.31l143.04 0zm-97.01 -160.27l0 0 37.14 -74.3 78.75 0 -73.72 74.3 -42.17 0z"/>
    <path class="fil0" d="M4095.02 1308.91c17.23,-37.69 44.38,-51.02 77.11,-51.02 12.74,0 26.59,2.79 37.13,8.85l-13.3 60.46c-7.71,-2.79 -17.7,-6.65 -29.9,-6.65 -28.87,0 -52.71,16.61 -67.66,60.43l0 175.77 -67.11 0 0 -290.56 50.99 0 11.09 42.72 1.65 0z"/>
    <path class="fil0" d="M4499.27 1524.61c-29.9,24.97 -68.21,40.48 -120.3,40.48 -76,0 -139.73,-49.33 -139.73,-151.93 0,-94.81 55.39,-155.27 137.52,-155.27 89.23,0 132.5,67.63 132.5,137.53 0,12.74 -1.1,27.18 -3.86,39.37l-199.12 0c7.78,55.43 39.96,75.93 82.68,75.93 34.38,0 62.63,-12.74 82.61,-29.9l27.7 43.79zm-51.54 -134.74l0 0c-1.65,-48.23 -27.76,-79.31 -69.31,-79.31 -41.07,0 -68.77,25.5 -73.8,79.31l143.11 0z"/>
    <path class="fil0" d="M4634.53 1305.02c23.84,-30.49 49.95,-45.48 88.19,-45.48 63.18,0 119.75,48.27 119.75,144.18 0,100.94 -62.08,161.37 -135.8,161.37 -27.77,0 -48.3,-5.55 -66.01,-16.09l0 121.99 -66.56 0 0 -405.35 47.13 0 12.19 39.38 1.11 0zm6.13 187.44l0 0c15.5,12.2 29.9,17.71 53.81,17.71 42.1,0 79.79,-36.03 79.79,-100.9 0,-63.77 -31.01,-90.92 -67.04,-90.92 -28.32,0 -48.23,15.5 -66.56,43.23l0 130.88z"/>
    <path class="fil0" d="M5160.73 1556.75l-45.96 0 -13.36 -40.44c-21.02,26.59 -47.68,47.12 -95.37,47.12 -58.77,0 -98.66,-33.83 -98.66,-103.14l0 -194.1 65.94 0 0 178.56c0,45.47 20.53,59.36 47.13,59.36 33.28,0 56.01,-21.09 74.34,-47.16l0 -190.76 65.94 0 0 290.56z"/>
    <path class="fil0" d="M5308.25 1295.61c20.46,-24.39 49.33,-37.72 83.72,-37.72 70.96,0 121.95,52.67 121.95,148.59 0,99.28 -54.85,158.61 -134.15,158.61 -35.49,0 -63.25,-14.4 -82.61,-38.79l-2.21 0 -11.09 30.45 -43.82 0 0 -416.99 66.56 0 0 155.85 1.65 0zm-1.65 180.76l0 0c13.29,18.3 34.38,29.94 63.73,29.94 44.92,0 76,-37.69 76,-98.7 0,-57.67 -29.97,-88.71 -71.59,-88.71 -24.39,0 -47.13,9.96 -68.14,35.48l0 121.99z"/>
    <polygon class="fil0" points="5582.13,1556.75 5582.13,1139.76 5648.69,1139.76 5648.69,1556.75 "/>
    <path class="fil0" d="M5811.09 1188.03c0,26.62 -20.46,37.71 -41.54,37.71 -20.53,0 -40.52,-11.09 -40.52,-37.71 0,-26.63 19.99,-38.27 40.52,-38.27 21.08,0 41.54,11.64 41.54,38.27zm-74.27 368.72l0 0 0 -290.56 66.01 0 0 290.56 -66.01 0z"/>
    <polygon class="fil0" points="5987.42,1433.69 5954.76,1470.28 5954.76,1556.75 5888.2,1556.75 5888.2,1139.76 5954.76,1139.76 5954.76,1389.87 6055.08,1266.19 6137.69,1266.19 6030.13,1385.98 6156.02,1556.75 6075.61,1556.75 "/>
    <path class="fil0" d="M6357.83 1575.08c-23.84,65.97 -58.77,99.25 -112.58,99.25 -31.01,0 -47.13,-4.44 -62.64,-9.44l12.2 -50.47c8.34,2.79 24.39,6.69 38.79,6.69 21.09,0 41.62,-14.99 52.16,-42.73l4.96 -12.74 -120.3 -300 68.76 0 83.72 231.78 76 -231.78 70.42 0 -111.49 309.44z"/>
   </g>
  </g>
 </g>
</svg>
