<?xml version="1.0" encoding="UTF-8" standalone="no"?>
<svg
   xmlns:dc="http://purl.org/dc/elements/1.1/"
   xmlns:cc="http://creativecommons.org/ns#"
   xmlns:rdf="http://www.w3.org/1999/02/22-rdf-syntax-ns#"
   xmlns:svg="http://www.w3.org/2000/svg"
   xmlns="http://www.w3.org/2000/svg"
   viewBox="0 0 187.5125 32.237499"
   height="32.237499"
   width="187.5125"
   xml:space="preserve"
   version="1.1"
   id="svg2"><metadata
     id="metadata8"><rdf:RDF><cc:Work
         rdf:about=""><dc:format>image/svg+xml</dc:format><dc:type
           rdf:resource="http://purl.org/dc/dcmitype/StillImage" /><dc:title></dc:title></cc:Work></rdf:RDF></metadata><defs
     id="defs6" /><g
     transform="matrix(1.25,0,0,-1.25,0,32.2375)"
     id="g10"><g
       transform="scale(0.1,0.1)"
       id="g12"><path
         id="path14"
         style="fill:#00adef;fill-opacity:1;fill-rule:nonzero;stroke:none"
         d="m 763.477,184.043 27.734,0 0,-68.086 25.078,33.547 29.707,0 -33.047,-41.848 38.535,-48.8279 -34.218,0 -26.055,37.375 0,-37.375 -27.734,0 0,125.2149" /><path
         id="path16"
         style="fill:#00adef;fill-opacity:1;fill-rule:nonzero;stroke:none"
         d="m 1441.7,58.8281 -9.97,0 -31.23,90.6759 29.73,0 15.61,-53.8087 3.82,-14.7656 4.48,14.7656 18.1,53.8087 27.89,0 -44.31,-127.1993 -26.43,0 12.31,36.5234" /><path
         id="path18"
         style="fill:#00adef;fill-opacity:1;fill-rule:nonzero;stroke:none"
         d="m 518.672,181.719 -31.715,16.105 9.633,17.606 22.082,-9.969 22.09,9.969 9.801,-17.606 -31.891,-16.105 z m -62.102,-64.93 c 0,40.848 21.75,61.113 64.43,61.113 17.426,0 27.73,-3.164 36.527,-7.14 l -7.468,-20.43 c -11.129,2.988 -15.766,4.148 -28.731,4.316 -21.25,0.332 -36.031,-11.621 -36.031,-36.199 0,-24.5818 15.609,-37.6873 39.351,-37.6873 11.461,0 18.274,0.9883 27.231,3.3203 l 5.98,-21.2578 C 546.57,58.6719 536.781,57.168 521.672,57.168 c -43.008,0 -65.102,21.0937 -65.102,59.621" /><path
         id="path20"
         style="fill:#00adef;fill-opacity:1;fill-rule:nonzero;stroke:none"
         d="m 625.805,113.469 c 0.343,10.957 -4.477,18.601 -13.446,18.601 -9.464,0 -15.609,-6.648 -16.101,-18.601 l 29.547,0 z m -57.95,-10.625 c 0,37.019 19.434,48.816 46.833,48.816 28.558,0 39.523,-18.601 39.523,-46.004 l 0,-9.9607 -58.781,0 c -0.172,-14.2773 11.117,-16.9336 25.566,-16.9336 6.141,0 16.442,2 25.902,3.6602 l 4.153,-21.0938 c -10.125,-2.9883 -23.082,-4.4922 -34.043,-4.4922 -29.887,0 -49.153,9.8047 -49.153,46.0081" /><path
         id="path22"
         style="fill:#00adef;fill-opacity:1;fill-rule:nonzero;stroke:none"
         d="m 669.648,60.6641 2.989,20.9179 c 11.793,-1.6601 21.265,-2.4882 27.402,-2.4882 13.949,0 15.609,3.6601 15.609,6.3085 0,9.793 -45.668,5.1446 -45.668,37.6957 0,19.586 18.426,28.73 38.2,28.73 11.117,0 21.086,-1.828 30.55,-5.148 l -4.652,-20.086 c -8.801,1.992 -15.769,3.308 -25.07,3.308 -9.465,0 -11.289,-3.484 -11.289,-5.468 0,-10.301 45.328,-7.481 45.328,-37.8598 0,-23.9297 -25.078,-29.7383 -40.348,-29.7383 -13.117,0 -23.75,1.1641 -33.051,3.8282" /><path
         id="path24"
         style="fill:#00adef;fill-opacity:1;fill-rule:nonzero;stroke:none"
         d="m 914.918,113.469 c 0.332,10.957 -4.492,18.601 -13.457,18.601 -9.453,0 -15.606,-6.648 -16.094,-18.601 l 29.551,0 z m -34.199,61.941 39.511,20.09 8.965,-19.437 -40.683,-17.262 -7.793,16.609 z m -23.746,-72.566 c 0,37.019 19.41,48.816 46.812,48.816 28.555,0 39.531,-18.601 39.531,-46.004 l 0,-9.9607 -58.789,0 c -0.175,-14.2773 11.114,-16.9336 25.567,-16.9336 6.152,0 16.445,2 25.898,3.6602 l 4.16,-21.0938 c -10.117,-2.9883 -23.086,-4.4922 -34.043,-4.4922 -29.882,0 -49.136,9.8047 -49.136,46.0081" /><path
         id="path26"
         style="fill:#00adef;fill-opacity:1;fill-rule:nonzero;stroke:none"
         d="m 1069.18,83.4102 0,45.3318 c -2.84,0.496 -6.49,1.16 -11.47,1.16 -15.78,0 -22.25,-8.964 -22.25,-24.746 0,-19.7537 8.81,-24.7341 18.6,-24.7341 4.98,0 10.96,1.3281 15.12,2.9883 m -61.27,22.2538 c 0,31.047 21.73,46.164 49.31,46.164 4.98,0 9.12,-0.664 11.96,-0.996 l 0,33.211 27.73,0 0,-125.2149 -27.73,0 0,6.4844 c -3.99,-3.1523 -9.14,-7.8008 -20.59,-7.8008 -18.28,0 -40.68,8.7969 -40.68,48.1523" /><path
         id="path28"
         style="fill:#00adef;fill-opacity:1;fill-rule:nonzero;stroke:none"
         d="m 1121.05,149.504 27.74,0 0,-12.121 c 4.49,5.812 12.94,13.945 23.41,13.945 4.98,0 8.64,-0.332 12.46,-1.504 l -3.65,-22.742 c -5.33,0.996 -7.15,0.996 -12.13,0.996 -8.12,0 -16.44,-3.82 -20.09,-7.793 l 0,-61.4569 -27.74,0 0,90.6759" /><path
         id="path30"
         style="fill:#00adef;fill-opacity:1;fill-rule:nonzero;stroke:none"
         d="m 1242.42,81.9141 0,14.289 -13.62,-0.3437 c -8.14,-0.1641 -14.12,-2.8203 -14.12,-9.4649 0,-5.3086 5.16,-7.6328 10.14,-7.6328 5.31,0 11.62,1.4922 17.6,3.1524 m -31.54,93.4959 39.51,20.09 8.96,-19.437 -40.66,-17.262 -7.81,16.609 z m -23.09,-90.6717 c 0,22.9177 20.92,27.5667 38.87,27.5667 l 15.76,0 0,5.644 c 0,7.969 -5.16,10.305 -16.45,10.305 -8.94,0 -18.57,-2.004 -27.07,-3.996 l -5.47,20.097 c 10.3,3.985 22.27,7.305 36.7,7.305 28.07,0 39.36,-7.969 39.36,-28.398 l 0,-40.3518 c 0,-2.9883 2.99,-3.6524 8.14,-3.8086 l -0.99,-20.9375 C 1274.47,58 1272.3,58 1270.15,58 c -10.95,0 -22.58,1.8242 -25.08,9.6367 -6.64,-5.1445 -16.11,-10.3008 -26.07,-10.3008 -19.92,0 -31.21,9.3047 -31.21,27.4024" /><path
         id="path32"
         style="fill:#00adef;fill-opacity:1;fill-rule:nonzero;stroke:none"
         d="m 1300.21,184.043 27.74,0 0,-43.672 c 5.46,4.149 17.44,11.789 29.55,11.789 28.39,0 30.39,-15.781 30.39,-36.367 l 0,-56.9649 -27.56,0 0,54.6409 c 0,12.449 -2.83,14.609 -12.13,14.609 -8.3,0 -15.76,-2.824 -20.25,-4.973 l 0,-64.2769 -27.74,0 0,125.2149" /><path
         id="path34"
         style="fill:#173a79;fill-opacity:1;fill-rule:nonzero;stroke:none"
         d="m 266.828,186.289 c 3.207,0 6.863,0 10.727,0 12.527,0 27.226,0 35.886,0 11.602,0 11.457,-6.328 11.356,-15.496 -0.102,-8.594 -1.422,-21.305 -5.145,-38.746 -3.636,-17.145 -7.371,-29.777 -10.972,-38.7423 -2.688,-6.7227 -5.282,-11.3516 -7.5,-14.3594 -3.434,-4.5273 -5.379,-5.4726 -7.594,-6.3242 -2.238,-0.8047 -5.676,-1.0977 -10.914,-1.0625 -25.801,0 -171.633,0 -197.0431,0 -11.3281,0 -13.6875,2.6445 -13.6797,10.75 0.0039,5.1445 0.8438,12.6094 2.9336,22.4144 2.2305,10.523 3.711,12.918 6.375,18.504 4.0977,8.445 7.6992,11.543 11.0313,13.406 3.3632,1.824 7.7339,2.64 14.1169,2.64 l 61.168,0 6.383,30.028 -67.551,0 c -5.801,-0.004 -12.0701,-0.438 -18.5935,-2.285 -4.8789,-1.379 -9.8672,-3.606 -14.5039,-6.871 C 66.3242,155.25 60.3828,148.176 55.6797,139.211 50.957,130.207 48.4336,124.688 45.5078,110.969 43.1484,99.8203 41.9336,90.543 41.918,82.3086 c 0.0156,-6.8438 0.8437,-13.0664 3.0898,-18.875 1.6719,-4.332 4.25,-8.3828 7.5469,-11.5859 4.9648,-4.8789 11.0586,-7.4727 16.6289,-8.7579 5.6367,-1.3007 11.0469,-1.5468 16.4453,-1.5664 25.4101,0.0039 171.2421,0.0039 197.0431,0 4.984,0.0235 11.086,0.0118 18.043,1.8868 5.18,1.3906 10.695,4.0156 15.601,8.0664 7.43,6.0937 13.344,14.7656 18.532,26.582 5.195,11.8789 9.8,27.1874 14.187,47.7464 3.973,18.769 5.778,33.222 5.793,44.988 -0.015,8.566 -0.949,15.789 -3.191,22.238 -1.676,4.821 -4.196,9.219 -7.528,12.762 -4.992,5.391 -11.457,8.203 -16.824,9.344 -5.433,1.191 -10.109,1.168 -13.844,1.187 -17.324,0 -58.718,0 -58.777,0 l -12.16,0 -27.191,-127.8279 30.703,0 20.812,97.7929" /><path
         id="path36"
         style="fill:#173a79;fill-opacity:1;fill-rule:nonzero;stroke:none"
         d="m 387.172,218.188 c -4.695,9.527 -11.063,17.164 -18.188,22.839 -10.718,8.543 -22.757,12.649 -33.609,14.7 -10.871,2.046 -20.848,2.117 -28.09,2.125 -13.637,0 -34.965,0 -52.887,0 -17.925,0 -32.402,0 -32.433,0 l -12.164,0.003 -36.024,-169.3589 30.703,0 29.641,139.3279 c 18.516,0 53.688,-0.008 73.164,-0.008 6.11,0.008 13.09,-0.105 19.961,-1.16 5.152,-0.785 10.176,-2.09 14.68,-4.097 6.765,-3.079 12.312,-7.332 16.867,-14.969 4.5,-7.664 8.02,-19.367 8.023,-37.531 0.004,-10.582 -1.211,-23.282 -4.066,-38.34 -5.152,-27.215 -11.531,-47.2073 -18.395,-61.5471 -5.144,-10.7735 -10.515,-18.3438 -15.82,-23.7656 -7.992,-8.0665 -15.758,-11.7579 -24.906,-13.9922 -9.121,-2.1797 -19.656,-2.4102 -31.191,-2.3828 -40.598,0 -152.372,0 -192.3599,0 C 67.418,30 54.5469,33.4297 45.6914,40.7656 c -4.4844,3.6914 -8.2031,8.3203 -11.0078,14.711 -2.7891,6.3828 -4.6484,14.6562 -4.6484,25.5117 0,6.9375 0.7656,14.9062 2.5429,23.9687 3.7891,19.336 7.6914,28.621 13.2774,39.676 8.4648,16.601 17.7031,24.922 27.0156,29.855 9.332,4.871 19.4766,6.364 29.9219,6.364 l 73.613,0 6.387,30.031 -80,0 c -8.8203,0 -18.5782,-0.824 -28.6563,-3.723 C 59.0117,202.887 43.3359,193.477 30.7461,176.953 18.0859,160.449 9.41406,142.852 3.10938,110.73 1.01172,100.023 0.00390625,90.1367 0,80.9883 -0.00390625,66.6992 2.48438,54.1523 7.16406,43.4531 14.1328,27.3516 26.1406,15.9492 39.3281,9.26563 52.543,2.51953 66.7969,0.015625 80.0781,0 120.066,0 231.84,0 272.438,0 c 10.421,0.015625 21.746,0.0390625 33.621,2.24609 8.886,1.66016 18.113,4.62891 26.98,9.82811 13.356,7.7735 25.402,20.4219 35.203,38.7969 9.844,18.418 17.813,42.6445 24.016,75.2579 3.133,16.551 4.594,31.07 4.594,43.93 0.003,19.543 -3.387,35.402 -9.68,48.129" /><path
         id="path38"
         style="fill:#173a79;fill-opacity:1;fill-rule:nonzero;stroke:none"
         d="m 195.23,257.852 -132.1636,0 -6.3867,-30.028 c 0,0 60.9803,0 102.8553,0 31.567,0 35.695,30.028 35.695,30.028" /></g></g></svg>