<?xml version="1.0" encoding="utf-8"?>
<!-- Generator: Adobe Illustrator 19.2.1, SVG Export Plug-In . SVG Version: 6.00 Build 0)  -->
<svg version="1.1" id="Layer_1" xmlns="http://www.w3.org/2000/svg" xmlns:xlink="http://www.w3.org/1999/xlink" x="0px" y="0px"
	 viewBox="0 0 101 32" style="enable-background:new 0 0 101 32;" xml:space="preserve">
<style type="text/css">
	.st0{fill:#1D3A69;}
	.st1{fill:#1D3A69;stroke:#010202;stroke-width:3.5;}
</style>
<g transform="matrix(.15519 0 0 .15519 -5.1549 -14.159)">
	<path class="st0" d="M347.1,146.5c-1.9,0.9-6,1.9-11.2,1.9c-13.7,0-22-8.6-22-21.7c0-14.2,9.9-22.7,23.1-22.7c5.2,0,8.8,1,10.4,1.9
		l-1.7,6.3c-2-0.9-4.9-1.7-8.4-1.7c-8.8,0-15.1,5.5-15.1,15.9c0,9.5,5.5,15.5,15,15.5c3.1,0,6.5-0.6,8.6-1.5L347.1,146.5z
		 M331.6,102.2l-6.6-7.6h5.9l3.6,4.2h0.1l3.5-4.2h5.8l-6.5,7.6H331.6z"/>
	<path class="st0" d="M378,128.6h-16.3v12.7h18.2v6.5h-26v-43.1h25.1v6.5h-17.2v11.1H378V128.6z"/>
	<path class="st0" d="M386.7,139.2c2.5,1.5,6.4,2.8,10.4,2.8c5,0,7.8-2.4,7.8-5.9c0-3.3-2.2-5.2-7.6-7.2
		c-7.2-2.5-11.7-6.3-11.7-12.5c0-7.1,5.9-12.4,15.3-12.4c4.7,0,8.1,1,10.3,2.1l-1.9,6.4c-1.6-0.8-4.6-2-8.6-2c-5,0-7.1,2.6-7.1,5.2
		c0,3.3,2.5,4.9,8.3,7c7.5,2.9,11.1,6.7,11.1,12.8c0,7-5.2,12.9-16.3,12.9c-4.6,0-9.3-1.3-11.7-2.7L386.7,139.2z"/>
	<path class="st0" d="M420,104.6h7.8v19.8h0.2c1-1.7,2.1-3.2,3.1-4.7l11.3-15.2h9.7L437.3,123l15.8,24.8h-9.2L431.7,128l-3.9,4.6
		v15.2H420L420,104.6z"/>
	<path class="st0" d="M466.7,135.5l-3.7,12.2h-8.1l13.8-43.1h10l14,43.1h-8.4l-3.9-12.2H466.7z M479,129.6l-3.4-10.6
		c-0.8-2.6-1.5-5.6-2.2-8.1h-0.1c-0.6,2.5-1.3,5.5-2,8.1l-3.3,10.6H479z M484,94.6l-8,7.7h-6.3l5.6-7.7H484z"/>
	<path class="st0" d="M350.8,216.8c-2.8,1-8.1,2.4-13.8,2.4c-7.3,0-12.9-1.9-17-5.8c-3.8-3.6-6-9.3-6-15.9
		c0.1-13.7,9.7-22.4,24-22.4c5.3,0,9.5,1.1,11.5,2l-1.7,6.3c-2.4-1.1-5.2-1.9-9.8-1.9c-9.2,0-15.7,5.4-15.7,15.5
		c0,9.9,6,15.6,15,15.6c2.9,0,4.9-0.4,6-0.8v-10.8h-7.6v-6.2h15.2L350.8,216.8L350.8,216.8z"/>
	<path class="st0" d="M383,199.6h-16.3v12.7h18.2v6.5h-26v-43.1h25.1v6.5h-17.2v11.1H383V199.6z"/>
	<path class="st0" d="M409.5,219.4c-12.2,0-19.9-9.3-19.9-22c0-13.2,8.4-22.6,20.5-22.6c12.5,0,20,9.5,20,21.8
		C430.1,211.2,421.3,219.4,409.5,219.4L409.5,219.4z M409.8,213.1c7.6,0,11.9-7,11.9-16.1c0-8.1-4-15.8-11.9-15.8s-12,7.5-12,16.1
		C397.9,205.9,402.2,213.1,409.8,213.1L409.8,213.1L409.8,213.1z"/>
	<path class="st0" d="M436.9,175.6h7.9v36.5h17.7v6.6h-25.6L436.9,175.6z"/>
	<path class="st0" d="M483.6,219.4c-12.2,0-19.9-9.3-19.9-22c0-13.2,8.4-22.6,20.5-22.6c12.5,0,20,9.5,20,21.8
		C504.2,211.2,495.4,219.4,483.6,219.4L483.6,219.4z M484,213.1c7.6,0,11.9-7,11.9-16.1c0-8.1-4-15.8-11.9-15.8s-12,7.5-12,16.1
		C472,205.9,476.3,213.1,484,213.1L484,213.1L484,213.1z"/>
	<path class="st0" d="M545.5,216.8c-2.8,1-8.1,2.4-13.8,2.4c-7.3,0-12.9-1.9-17-5.8c-3.8-3.6-6-9.3-6-15.9
		c0.1-13.7,9.7-22.4,24-22.4c5.3,0,9.5,1.1,11.5,2l-1.7,6.3c-2.4-1.1-5.2-1.9-9.8-1.9c-9.2,0-15.7,5.4-15.7,15.5
		c0,9.9,6,15.6,15,15.6c2.9,0,4.9-0.4,6-0.8v-10.8h-7.6v-6.2h15.2L545.5,216.8L545.5,216.8z"/>
	<path class="st0" d="M561.5,175.6v43.1h-7.9v-43.1H561.5z"/>
	<path class="st0" d="M601.4,217.5c-1.9,0.9-6,1.9-11.2,1.9c-13.7,0-22-8.6-22-21.7c0-14.2,9.9-22.7,23.1-22.7c5.2,0,8.8,1,10.4,1.9
		l-1.7,6.3c-2-0.9-4.9-1.7-8.4-1.7c-8.8,0-15.1,5.5-15.1,15.9c0,9.5,5.5,15.5,15,15.5c3.1,0,6.5-0.6,8.6-1.5L601.4,217.5z"/>
	<path class="st0" d="M608.1,175.6h7.8v19.8h0.2c1-1.7,2.1-3.2,3.1-4.7l11.3-15.2h9.7L625.4,194l15.8,24.8H632L619.8,199l-3.9,4.6
		v15.2h-7.8L608.1,175.6z"/>
	<path class="st0" d="M654.8,206.5l-3.7,12.2h-8.1l13.8-43.1h10l14,43.1h-8.4l-3.9-12.2H654.8z M667.1,200.6l-3.4-10.6
		c-0.8-2.6-1.5-5.6-2.2-8.1h-0.1c-0.6,2.5-1.3,5.5-2,8.1l-3.3,10.6H667.1z M672.1,165.6l-8,7.7h-6.3l5.6-7.7H672.1z"/>
	<path class="st0" d="M316.1,281.2c2.5,1.5,6.4,2.8,10.4,2.8c5,0,7.8-2.4,7.8-5.9c0-3.3-2.2-5.2-7.6-7.2
		c-7.2-2.5-11.7-6.3-11.7-12.5c0-7.1,5.9-12.4,15.3-12.4c4.7,0,8.1,1,10.3,2.1l-1.9,6.4c-1.6-0.8-4.6-2-8.6-2c-5,0-7.1,2.6-7.1,5.2
		c0,3.3,2.5,4.9,8.3,7c7.5,2.9,11.1,6.7,11.1,12.8c0,7-5.2,12.9-16.3,12.9c-4.6,0-9.3-1.3-11.7-2.7L316.1,281.2z"/>
	<path class="st0" d="M349.4,246.6h7.9v36.5H375v6.6h-25.6V246.6z"/>
	<path class="st0" d="M386.7,246.6v25.2c0,8.4,3.5,12.4,8.8,12.4c5.7,0,9.1-3.9,9.1-12.4v-25.2h7.9v24.6c0,13.3-6.8,19.2-17.2,19.2
		c-10,0-16.4-5.6-16.4-19.1v-24.7L386.7,246.6z"/>
	<path class="st0" d="M418.6,285.4l22.1-32.1v-0.2h-20.2v-6.5h30.3v4.6L429.1,283v0.2h22.1v6.5h-32.6V285.4z M432.6,244.3l-6.6-7.6
		h5.9l3.6,4.2h0.1l3.5-4.2h5.8l-6.5,7.6H432.6z"/>
	<path class="st0" d="M457.7,247.2c2.5-0.5,7-1,11.5-1c5.8,0,9.4,0.8,12.3,2.8c2.7,1.6,4.5,4.4,4.5,8.1c0,4-2.5,7.6-7.2,9.3v0.2
		c4.5,1.2,8.7,4.7,8.7,10.6c0,3.8-1.7,6.8-4.1,8.9c-3.1,2.7-8.1,4-16.1,4c-4.4,0-7.6-0.3-9.7-0.6V247.2z M465.5,264.3h4
		c5.5,0,8.5-2.6,8.5-6.2c0-4.1-3.1-6-8.1-6c-2.3,0-3.6,0.1-4.5,0.3L465.5,264.3L465.5,264.3z M465.5,284c1,0.2,2.4,0.2,4.2,0.2
		c5.1,0,9.6-1.9,9.6-7.2c0-5-4.4-7-9.9-7h-3.9L465.5,284L465.5,284z"/>
	<path class="st0" d="M503.2,277.5l-3.7,12.2h-8.1l13.8-43.1h10l14,43.1h-8.4l-3.9-12.2H503.2z M515.6,271.6l-3.4-10.6
		c-0.8-2.6-1.5-5.6-2.2-8.1h-0.1c-0.6,2.5-1.3,5.5-2,8.1l-3.3,10.6H515.6z"/>
	<path class="st0" d="M158.1,179.9l-1.6-1.4l-6.4-6l-1.1-1.9l0.5-0.2c0.6-0.2,2-1.5,2.7-2.2l17.3-20.7c0.7-0.8,2.6-3.2,3.4-4.9
		c1.3-2.9,1-4.2-1.6-6.6c-2.8-2.6-7.4-5.7-7.4-5.8l-0.3-0.2l-0.3-1.6l4.7-7l1.5-0.4l0.3,0.2c0,0,5.4,3,8.3,5c3,2.1,7.9,5.5,10.6,8
		c0.3,0.3,0.6,0.6,0.9,0.9l0.1,0.1c2.2,2,4.3,3.9,8.9,9.1c2.7,3,5.1,6.4,7.9,10.3l1.3,1.8c6.7,9.5,8.4,16.3,8.5,16.6l0.2,0.7
		l-2.2,1.3l-4.4-3.8c-0.1-0.1-6.5-7.4-11.6-12.5c-4.5-4.5-8.3-7.9-12-10.5c-0.5-0.3-0.9-0.5-1.3-0.6c-0.9-0.1-1.6,0.7-2.1,1.3
		c-0.1,0.2-0.3,0.3-0.4,0.4c-1.3,1.3-4.1,4.4-4.9,5.3l-0.1,0.1L160.7,175c-1,1.3-2.3,3.4-2.5,3.9L158.1,179.9z M150.9,172l5.7,5.5
		c0.7-1.3,2-3.1,2.5-3.8l17-20.5c1.1-1.2,3.6-4.1,5-5.4c0.1-0.1,0.2-0.2,0.3-0.3c0.6-0.7,1.9-2.1,3.8-1.9c0.7,0.1,1.5,0.4,2.3,0.9
		c3.8,2.7,7.7,6.1,12.3,10.7c4.9,4.9,11,11.8,11.6,12.6l2.6,2.3c-0.8-2.4-2.9-7.7-7.7-14.6l-1.2-1.8c-2.8-3.9-5.1-7.2-7.7-10.1
		c-4.6-5.1-6.7-6.9-8.8-8.9l-0.1-0.1c-0.3-0.3-0.6-0.6-0.9-0.9c-2.6-2.4-7.5-5.8-10.4-7.8c-2.5-1.7-6.6-4.1-7.8-4.7l0,0l-3.8,5.7
		l0,0c1.1,0.8,4.9,3.5,7.3,5.7c3.2,3,3.7,5.1,2.1,8.9c-1.1,2.4-3.7,5.4-3.7,5.4l-17.4,20.7C153.6,169.7,152.2,171.3,150.9,172z"/>
	<path class="st0" d="M50.4,214.4c-0.4-0.5-0.8-1.4-1.1-2.6c-1-4.2,1.6-7.4,7-8.7c6.7-1.6,10,1.5,10.8,4.8c0.3,1.2,0.3,2.1,0.1,2.5
		l-2.5,0c0.1-0.5,0.1-1-0.1-1.8c-0.5-2-2.7-3.6-7.4-2.5c-4.7,1.1-5.9,3.4-5.3,5.6c0.2,0.7,0.5,1.3,0.7,1.7L50.4,214.4z M67.3,205.7
		l2.1-3L70,205l-1.1,1.6l0,0.1l1.7,0.9l0.5,2.2l-3.2-1.6L67.3,205.7z"/>
	<path class="st0" d="M61.5,221.9l-1.6-4.2l-5.3,2.1l1.8,4.8l-2.3,0.9l-2.9-7.6l16.7-6.5l2.8,7.2l-2.3,0.9l-1.7-4.4l-4.6,1.8
		l1.6,4.2L61.5,221.9z"/>
	<path class="st0" d="M58.3,227.1c0,0.8,0.3,2,0.8,2.9c0.9,1.6,2.3,2,3.6,1.3c1.3-0.7,1.5-1.9,1.7-3.7c0.1-2.5,1-4.6,2.7-5.5
		c2.4-1.3,5.3-0.6,7,2.5c0.6,1.1,0.8,2.2,0.8,2.8l-2.4,0.7c0-0.6-0.1-1.4-0.6-2.3c-0.8-1.5-2.2-1.7-3.1-1.2
		c-1.2,0.7-1.4,1.6-1.5,3.9c-0.2,2.8-1.2,4.5-2.9,5.4c-2.8,1.5-5.8,0.4-7.4-2.6c-0.7-1.2-1-2.7-1-3.4L58.3,227.1z"/>
	<path class="st0" d="M76.4,228.9l1.8,2.4l-6.6,4.9l0.1,0.1c0.8-0.2,1.6-0.4,2.4-0.5l6.6-1.2l2,2.7l-8.8,1.1l-5.5,9.6l-1.9-2.6
		l4.5-7.3l-1.8,0.2l-5.1,3.8l-1.8-2.4L76.4,228.9z"/>
	<path class="st0" d="M75.8,249.2l-4,2.6l-2.1-2.1l15.6-9.6l2.5,2.5L78,257.9l-2.1-2.1l2.6-4L75.8,249.2z M79.8,250.1l2.4-3.5
		c0.6-1,1.6-2.3,2.4-3.4l-0.1-0.1c-1,0.7-2.4,1.8-3.4,2.4l-3.5,2.3L79.8,250.1z M92.3,241.5l-4.5-0.4l-1.6-1.6l3.8-0.3L92.3,241.5z"
		/>
	<path class="st0" d="M93.4,268.7c-0.9-0.2-2.3-0.8-3.4-1.5c-1.6-1.1-2.6-2.4-3-4.1c-0.4-2,0.3-4.7,2.1-7.3
		c3.8-5.5,8.4-5.5,11.5-3.4c1.1,0.7,1.8,1.5,2.1,2.1l-1.9,1.7c-0.3-0.5-0.8-1-1.6-1.6c-2-1.4-4.8-1.2-7.6,3c-2.7,4-2,6.5-0.4,7.6
		c0.4,0.3,0.7,0.4,0.9,0.4l2.8-4.2l-1.7-1.1l1.3-1.9l4,2.7L93.4,268.7z"/>
	<path class="st0" d="M107.2,267.2l-4-2l-2.5,5.1l4.6,2.3l-1.1,2.2l-7.2-3.6l8-16l6.9,3.5l-1.1,2.2l-4.3-2.1l-2.2,4.4l4,2
		L107.2,267.2z"/>
	<path class="st0" d="M112.1,278.1c-3.5-1.2-4.1-5.4-2.3-10.5c1.8-5.1,5-7.9,8.6-6.6c3.7,1.3,3.9,5.7,2.3,10.2
		C118.5,277.6,115.3,279.2,112.1,278.1L112.1,278.1z M113.1,275.8c1.8,0.6,3.5-2.2,4.7-5.6c1.1-3.1,1.7-6.4-0.2-7.1
		c-1.9-0.7-3.6,2.2-4.7,5.4C111.6,271.9,111.2,275.2,113.1,275.8L113.1,275.8z"/>
	<path class="st0" d="M125.3,263.3l2.9,0.6l-3.3,15.1l4.9,1.1l-0.5,2.3l-7.9-1.7L125.3,263.3z"/>
	<path class="st0" d="M136.5,283.6c-3.7-0.4-5.2-4.3-4.7-9.7c0.6-5.3,3.1-8.9,6.9-8.5c3.9,0.4,5.1,4.6,4.6,9.4
		C142.6,281.6,139.8,284,136.5,283.6L136.5,283.6z M136.9,281.2c1.9,0.2,2.9-2.9,3.2-6.5c0.3-3.2,0.1-6.6-1.9-6.8
		c-2-0.2-3,3-3.3,6.3C134.5,277.7,134.9,281,136.9,281.2L136.9,281.2z"/>
	<path class="st0" d="M156.2,283.3c-0.8,0.3-2.3,0.7-3.7,0.7c-1.9,0.1-3.5-0.4-4.8-1.6c-1.5-1.4-2.5-4-2.6-7.1
		c-0.1-6.7,3.6-9.4,7.3-9.5c1.3,0,2.3,0.2,2.9,0.4l-0.5,2.5c-0.5-0.3-1.2-0.4-2.2-0.4c-2.4,0.1-4.6,1.8-4.5,6.9
		c0.1,4.9,2.2,6.4,4.1,6.4c0.5,0,0.8-0.1,1-0.2l-0.1-5l-2,0.1l-0.1-2.3l4.8-0.1L156.2,283.3z"/>
	<path class="st0" d="M160.9,265.2l2.3,17.7l-3,0.4l-2.3-17.7L160.9,265.2z"/>
	<path class="st0" d="M175.8,280.2c-0.5,0.4-1.4,0.8-2.6,1c-4.2,0.9-7.3-1.8-8.5-7.2c-1.4-6.7,1.8-9.9,5.1-10.6
		c1.2-0.3,2.1-0.2,2.5-0.1l0,2.5c-0.5-0.1-1-0.2-1.8,0c-2,0.4-3.7,2.6-2.6,7.4c1,4.7,3.2,6,5.5,5.5c0.7-0.1,1.3-0.5,1.7-0.7
		L175.8,280.2z"/>
	<path class="st0" d="M173.4,262.6l2.8-1l2.7,7.8l0.1,0c0.1-0.8,0.1-1.6,0.2-2.5l0.9-6.6l3.1-1.1l-1.7,8.7l7.5,8.2l-3.1,1.1
		l-5.7-6.5l-0.4,1.8l2.1,6l-2.8,1L173.4,262.6z"/>
	<path class="st0" d="M190.4,251.3l-1.8,4.2l-2,1l0.9-3.7L190.4,251.3z M192.5,269.4l1.2,4.6l-2.6,1.3l-4.2-17.9l3.1-1.6l11.4,14.3
		l-2.6,1.3l-3-3.7L192.5,269.4z M194.6,265.8l-2.5-3.3c-0.7-0.9-1.7-2.3-2.4-3.3l-0.1,0c0.4,1.2,0.9,2.9,1.2,4l1.1,4L194.6,265.8z"
		/>
	<path class="st0" d="M206.6,263.3c0.8-0.1,2-0.6,2.8-1.1c1.5-1.1,1.7-2.5,0.8-3.7c-0.8-1.2-2.1-1.3-3.9-1.2
		c-2.4,0.2-4.7-0.4-5.8-1.9c-1.6-2.2-1.3-5.2,1.5-7.3c1-0.7,2.1-1.1,2.6-1.1l1,2.3c-0.6,0.1-1.4,0.3-2.2,0.9c-1.4,1-1.4,2.4-0.8,3.2
		c0.8,1.1,1.8,1.2,4,1c2.8-0.2,4.6,0.6,5.7,2.2c1.9,2.6,1.1,5.7-1.6,7.7c-1.1,0.8-2.5,1.4-3.2,1.4L206.6,263.3z"/>
	<path class="st0" d="M206.1,245.1l2.2-2l10.5,11.4l3.7-3.4l1.6,1.8l-5.9,5.4L206.1,245.1z"/>
	<path class="st0" d="M214.5,237l8.9,7.7c2.2,1.9,3.5,1.8,4.3,0.9c0.9-1,0.7-2.2-1.5-4.1l-8.9-7.7l2-2.3l8.6,7.3
		c3.5,3,3.9,5.9,1.8,8.4c-2.2,2.6-5,2.4-8.4-0.4l-8.7-7.4L214.5,237z"/>
	<path class="st0" d="M221.3,226.7l-3.6,0.5l1.3-2l1.9-0.3l0,0l-0.6-1.8l1.2-1.9l1,3.5L221.3,226.7z M233.5,239.3l-8.1-12.6l0,0
		l-3.1,4.7l-2.1-1.3l4.9-7.6l1.7,1.1l7.9,12.3l0.1,0l3.2-5l2.1,1.3l-5.2,8L233.5,239.3z"/>
	<path class="st0" d="M226,221.4c0.2-1,0.7-2.2,1.3-3.5c0.7-1.5,1.7-2.9,3-3.5c1.1-0.5,2.3-0.4,3.5,0.1c1.5,0.7,2.5,2.2,2.4,4.2
		l0.1,0c1.4-1.7,3.5-2.1,5.4-1.2c1.3,0.6,2.2,1.6,2.6,2.8c0.6,1.5,0.3,3.4-0.9,5.9c-0.6,1.3-1.1,2.1-1.5,2.8L226,221.4z
		 M233.8,221.8l0.4-0.8c0.7-1.4,0.1-3-1.3-3.7c-1.3-0.6-2.7-0.5-3.5,1.2c-0.2,0.4-0.3,0.7-0.4,1L233.8,221.8z M241.2,225.4
		c0.2-0.2,0.3-0.5,0.5-0.8c0.8-1.6,0.4-3.3-1.4-4.2c-1.9-0.9-3.5,0-4.2,1.6l-0.4,0.8L241.2,225.4z"/>
	<path class="st0" d="M244.1,211.9l4.1,2.3l-0.8,2.8l-15.9-9.2l1-3.4l18.2,1.4l-0.8,2.8l-4.7-0.4L244.1,211.9z M242.9,208l-4.2-0.4
		c-1.2-0.1-2.8-0.3-4.1-0.5l0,0.1c1.1,0.5,2.7,1.3,3.7,1.9l3.7,2L242.9,208z"/>
	<path class="st0" d="M150.4,189.4c-7.7,9.3-23.5,28.2-24.2,29.1c-0.3,0.4-3.8,5.3-4.7,6.6c-0.2,0.4-0.5,0.8-0.7,1.3
		c-0.7,1.5-1.6,3.3-3.4,4.3c-0.6,0.3-1.2,0.5-1.9,0.5c-2.1,0-4.1-1.8-6.1-3.5l-0.5-0.4c-0.3-0.3-0.6-0.5-0.9-0.8
		c-2.1-1.8-4.1-3.5-4.5-5.2c-0.6-2.5,5-6.8,5.1-6.8c1.4-1,3.2-2.9,4.8-4.6c0.5-0.6,1-1.1,1.5-1.6c1-1,7.7-8.7,14.1-16.2
		c4.6-5.3,9.3-10.6,12.4-14.2c0.1-0.1,0.2-0.3,0.4-0.4l1.2,2.1c-3.1,3.6-7.7,8.9-12.2,14c-6.8,7.8-13.2,15.2-14.2,16.3
		c-0.5,0.5-1,1-1.5,1.6c-1.6,1.8-3.5,3.8-5.1,4.9c-2.1,1.5-4,3.8-4.2,4.5c0.3,1,2.3,2.7,3.8,3.9c0.3,0.3,0.6,0.5,0.9,0.8l0.5,0.4
		c1.6,1.4,3.3,2.9,4.6,2.9c0.2,0,0.5-0.1,0.7-0.2c1.2-0.7,1.9-2.2,2.5-3.4c0.3-0.6,0.5-1.1,0.8-1.6c1-1.5,4.7-6.5,4.8-6.8l0-0.1
		c0.2-0.2,16.6-20,24.4-29.3c0.1-0.2,0.3-0.3,0.4-0.5L150.4,189.4z"/>
	<path class="st0" d="M183.9,231.3c-0.7,0-1.3-0.2-1.9-0.5c-1.8-1.1-2.7-2.9-3.4-4.3c-0.2-0.5-0.5-1-0.7-1.3
		c-0.9-1.4-4.4-6.2-4.7-6.6c-0.9-1.1-25.8-31-28.2-33.8c-2.2-2.5-3.4-4.6-3.7-5.4l-0.3-0.6c-0.8-1.5-1-1.8-2.5-3.6l-16.9-20.4
		c0,0-3.4-3.8-4.9-5.3c-0.1-0.1-0.2-0.2-0.4-0.4c-0.5-0.5-1.2-1.3-2-1.2c-0.4,0-0.8,0.2-1.2,0.5c-3.7,2.6-7.5,5.9-12,10.5
		c-5.1,5.1-11.5,12.4-11.6,12.5l-0.2,0.2l-4.3,3.7l-2.4-1.4l0.2-0.8c0.1-0.3,1.8-7.2,8.5-16.7l1.2-1.7c2.8-3.9,5.2-7.4,7.9-10.3
		c4.7-5.1,6.7-7,8.9-9l0.1,0c0.3-0.3,0.7-0.6,1-1c2.8-2.6,7.6-6,10.6-8l0.1,0c3-2.1,8.3-5,8.3-5l0.4-0.2l1.6,0.4l4.7,7.1l-0.3,1.7
		l-0.4,0.3c-0.5,0.3-4.8,3.3-7.4,5.8c-2.6,2.4-2.8,3.5-1.6,6.4c0.8,1.7,2.7,4.1,3.3,4.9l17.4,20.8c0.7,0.8,2,1.9,2.6,2.2l0.1,0
		l0.2,0.2c1.2,0.7,3.2,2.3,5.4,4.8c2.7,3,8.8,10.1,14.7,16.9c6.5,7.5,13.2,15.2,14.2,16.2c0.5,0.5,1,1,1.5,1.6
		c1.6,1.7,3.3,3.6,4.8,4.6c0.1,0,5.7,4.3,5.1,6.8c-0.4,1.7-2.4,3.4-4.5,5.2c-0.3,0.3-0.6,0.5-0.9,0.8l-0.5,0.4
		C188,229.5,185.9,231.3,183.9,231.3z M114.4,145.4c1.8,0,2.9,1.3,3.5,2c0.1,0.1,0.2,0.2,0.3,0.3c1.6,1.6,5,5.4,5.1,5.5l17,20.4
		c1.5,1.9,1.9,2.3,2.7,4l0.4,0.8c0.1,0.4,1.1,2.3,3.2,4.7c2.5,2.9,28,33.6,28.3,33.9l0,0.1c0.2,0.2,3.9,5.3,4.8,6.8
		c0.3,0.5,0.6,1,0.8,1.6c0.6,1.2,1.3,2.7,2.5,3.4c0.2,0.1,0.4,0.2,0.7,0.2c1.2,0,3-1.5,4.6-2.9l0.5-0.4c0.3-0.3,0.6-0.5,0.9-0.8
		c1.5-1.2,3.5-2.9,3.8-3.9c-0.2-0.7-2.1-3-4.2-4.5c-1.6-1.2-3.5-3.2-5.1-4.9c-0.5-0.6-1-1.1-1.5-1.6c-1-1-7.5-8.5-14.3-16.3
		c-5.9-6.8-12-13.8-14.7-16.8c-2.1-2.3-3.9-3.8-4.9-4.4l-0.1-0.1c-1.4-0.6-3.3-2.6-3.4-2.7l0,0L128,148.8c0,0-2.6-3-3.7-5.4
		c-1.6-3.7-1.1-6,2.1-9c2.4-2.2,5.9-4.8,7.2-5.7l-3.7-5.5c-1.3,0.7-5.3,3-7.7,4.7l-0.1,0c-2.9,2-7.7,5.3-10.3,7.8
		c-0.4,0.3-0.7,0.7-1,1l-0.8-0.8l0.8,0.8c-2.2,2-4.2,3.9-8.8,8.9c-2.6,2.9-5,6.2-7.7,10.1l-1.2,1.8c-4.6,6.4-6.7,11.5-7.6,14.1
		l2.2-1.9c0.5-0.6,6.7-7.6,11.7-12.6c4.6-4.6,8.5-8,12.3-10.7c0.8-0.6,1.6-0.9,2.4-1C114.2,145.4,114.3,145.4,114.4,145.4z"/>
	<path class="st0" d="M150,256.3l-1,0c-42.3-0.3-76.7-34.8-76.7-77.3c0-20.6,8.1-40,22.7-54.6c14.5-14.5,33.7-22.5,54-22.7v0l1,0
		c20.4,0.1,39.6,8.2,54.1,22.7c14.6,14.7,22.7,34.1,22.7,54.6C226.8,221.5,192.4,256,150,256.3L150,256.3z M149.5,253.7
		c41.2,0,74.8-33.5,74.8-74.7c0-19.9-7.8-38.7-21.9-52.8c-14.2-14.1-32.9-21.9-52.8-21.9c-19.9,0-38.6,7.8-52.7,21.9
		c-14.2,14.2-21.9,32.9-21.9,52.8C74.8,220.2,108.3,253.7,149.5,253.7z"/>
	<path class="st0" d="M149.6,294.1L149.6,294.1c-26.9,0-53.1-9.5-73.7-26.7c-20.7-17.2-34.6-41.1-39.1-67.2l0-0.2l-0.3-0.3l31.4-6.2
		c-0.2-1.8-0.5-4.2-0.7-6.2l-0.1-0.8c-0.3-2.5-0.4-4.9-0.4-7.1c0-45.7,37.2-82.9,82.9-82.9h0.1c45.7,0,82.9,37.2,82.9,82.9
		c0,2.3-0.1,4.9-0.4,7.4c-0.2,1.9-0.5,4.4-0.9,6.6l31.3,6.4l-0.1,0.5l0.1,0l-0.1,0.4c-4.6,25.9-18.5,49.6-39.3,66.7
		C202.5,284.6,176.3,294.1,149.6,294.1z M39.6,201.7c4.7,24.8,18.2,47.4,37.9,63.8c20.2,16.8,45.8,26.1,72.1,26.1
		c26.1,0,51.7-9.3,72-26.1c19.9-16.4,33.4-39,38.1-63.7l-31.5-6.4l0.6-2.7l0,0c0.1-0.4,0.1-0.9,0.2-1.3c0.2-1.6,0.5-3.4,0.6-4.8
		c0.2-2.3,0.4-4.8,0.4-7.2c0-44.3-36-80.3-80.3-80.4h-0.1c-44.3,0-80.4,36.1-80.4,80.4c0,2.3,0.2,4.8,0.4,6.9
		c0.2,2.3,0.5,5.6,0.9,7.7l0.3,1.5L39.6,201.7z"/>
	<path class="st0" d="M85,175l-2.2-1.3l0.2-0.7c0.1-0.3,1.8-7.2,8.5-16.6l1.2-1.7c2.8-3.9,5.2-7.3,7.9-10.3c4.7-5.1,6.7-7,8.9-9
		l0.1-0.1c0.3-0.3,0.6-0.6,1-0.9c2.7-2.5,7.6-5.9,10.6-8l0.1,0c3-2.1,8.3-5,8.3-5l0.3-0.2l1.5,0.4l4.7,7l-0.3,1.6l-0.3,0.2
		c-0.5,0.3-4.8,3.3-7.4,5.8c-2.6,2.4-2.9,3.7-1.6,6.6c0.8,1.8,2.7,4.1,3.3,4.9l5.2,6.2l-8.1,7.1l-5.1-6.3c0,0-3.4-3.8-4.9-5.3
		c-0.1-0.1-0.2-0.2-0.4-0.4c-0.5-0.5-1.2-1.3-2.1-1.3c-0.4,0-0.8,0.2-1.3,0.6c-3.7,2.6-7.5,5.9-12,10.5c-5,5.1-11.5,12.4-11.6,12.5
		l-0.2,0.2L85,175z"/>
	<path class="st0" d="M214.4,174.8l-4.3-3.8c-0.1-0.1-6.6-7.4-11.6-12.5c-4.5-4.6-8.3-7.9-12-10.5c-0.5-0.4-1-0.6-1.4-0.6
		c-1-0.1-1.7,0.8-2.2,1.3c-0.1,0.2-0.3,0.3-0.4,0.4c-1.3,1.3-4.1,4.4-4.9,5.3l-0.1,0.1l-5.1,6.1l-7.9-6.8l5.2-6.3
		c0.7-0.8,2.6-3.2,3.4-5c1.3-3,1-4.3-1.6-6.7c-2.8-2.6-7.4-5.8-7.4-5.8l-0.3-0.2l-0.3-1.5l4.6-7l1.4-0.3l0.3,0.2c0,0,5.4,3,8.3,5
		c3,2.1,7.9,5.5,10.6,8c0.3,0.3,0.6,0.6,0.9,0.9l0.1,0.1c2.2,2,4.3,3.9,8.9,9c2.7,3,5.1,6.4,7.9,10.3l1.3,1.8
		c6.7,9.5,8.4,16.3,8.4,16.6l0.1,0.6L214.4,174.8z"/>
	<path class="st0" d="M133,227.7L133,227.7l-2.9,1.6l-0.5-2.2l3.8-2.1h2.4v17.2H133L133,227.7L133,227.7z"/>
	<path class="st0" d="M140.8,240.1c0.6,0,0.9,0,1.4-0.1c0.8-0.2,1.6-0.6,2.2-1.2c0.8-0.8,1.5-2.3,1.8-4.1h-0.1
		c-0.6,0.7-1.4,1.2-2.6,1.2c-2.2,0-3.9-2-3.9-5.1c0-3,1.8-5.9,4.8-5.9c3.1,0,4.6,3,4.6,7c0,3.7-1.1,6.4-2.6,8.2
		c-1,1.2-2.5,2.1-4.1,2.4c-0.5,0.1-1,0.1-1.5,0.1L140.8,240.1L140.8,240.1z M144.2,226.9c-0.9,0-1.8,1.1-1.8,3.6
		c0,2.1,0.7,3.4,1.9,3.4c0.7,0,1.4-0.5,1.7-1.2c0.1-0.3,0.2-0.6,0.2-1.5C146.2,228.3,145.4,226.9,144.2,226.9L144.2,226.9
		L144.2,226.9z"/>
	<path class="st0" d="M154.6,227.7L154.6,227.7l-2.9,1.6l-0.5-2.2l3.8-2.1h2.4v17.2h-2.8L154.6,227.7L154.6,227.7z"/>
	<path class="st0" d="M162.5,240.1c0.6,0,0.9,0,1.4-0.1c0.8-0.2,1.6-0.6,2.2-1.2c0.8-0.8,1.5-2.3,1.8-4.1h-0.1
		c-0.6,0.7-1.4,1.2-2.6,1.2c-2.2,0-3.9-2-3.9-5.1c0-3,1.8-5.9,4.8-5.9c3.1,0,4.6,3,4.6,7c0,3.7-1.1,6.4-2.6,8.2
		c-1,1.2-2.5,2.1-4.1,2.4c-0.5,0.1-1,0.1-1.5,0.1L162.5,240.1z M165.9,226.9c-0.9,0-1.8,1.1-1.8,3.6c0,2.1,0.7,3.4,1.9,3.4
		c0.7,0,1.4-0.5,1.7-1.2c0.1-0.3,0.2-0.6,0.2-1.5C167.9,228.3,167,226.9,165.9,226.9L165.9,226.9L165.9,226.9z"/>
	<path class="st1" d="M238.5,114"/>
</g>
</svg>
