<?xml version="1.0" encoding="UTF-8" standalone="no"?>
<svg
   xmlns:dc="http://purl.org/dc/elements/1.1/"
   xmlns:cc="http://creativecommons.org/ns#"
   xmlns:rdf="http://www.w3.org/1999/02/22-rdf-syntax-ns#"
   xmlns:svg="http://www.w3.org/2000/svg"
   xmlns="http://www.w3.org/2000/svg"
   xml:space="preserve"
   viewBox="0 0 133 70"
   height="70"
   width="133"
   y="0px"
   x="0px"
   id="Vrstva_1"
   version="1.1"><metadata
     id="metadata15"><rdf:RDF><cc:Work
         rdf:about=""><dc:format>image/svg+xml</dc:format><dc:type
           rdf:resource="http://purl.org/dc/dcmitype/StillImage" /><dc:title></dc:title></cc:Work></rdf:RDF></metadata><defs
     id="defs13" /><style
     id="style3"
     type="text/css">
	.st0{fill:#E30613;}
	.st1{fill:#00497B;}
</style><rect
     y="0.28729028"
     x="0.3176797"
     height="70"
     width="133"
     id="rect3354"
     style="fill:#bce4fa;fill-opacity:1;stroke:none;stroke-opacity:1" /><g
     transform="translate(14.077348,12.922652)"
     id="g5"><path
       style="fill:#e30613"
       id="path7"
       d="m 92.4,0 c 0.9,0 1.8,0.4 2.4,1 0.7,0.7 1,1.5 1,2.5 0,1 -0.3,1.8 -1,2.5 -0.7,0.7 -1.5,1 -2.5,1 -1,0 -1.8,-0.3 -2.5,-1 -0.7,-0.7 -1,-1.5 -1,-2.5 0,-1 0.3,-1.8 1,-2.5 0.9,-0.6 1.7,-1 2.6,-1 l 0,0 z m 11.6,14.1 0,-2.2 c 0,-2 -1.7,-3.7 -3.7,-3.7 l -15.7,0 c -2,0 -3.7,1.7 -3.7,3.7 l 0,8.1 17.5,0 0,1.2 -17.5,0 0,2.2 c 0,2 1.7,3.7 3.7,3.7 l 15.7,0 c 2,0 3.7,-1.7 3.7,-3.7 l 0,-8.1 -17.5,0 0,-1.2 17.5,0 z"
       class="st0" /><path
       style="fill:#00497b"
       id="path9"
       d="m 8.1,8.1 c 3.9,0 5.2,0.7 5.2,2.3 l 0,1.8 -5.2,0 c -2.6,0 -3.2,1.1 -3.2,5.5 0,4.3 0.6,5.5 3.2,5.5 l 5.2,0 0,1.8 c 0,1.6 -1.3,2.3 -5.2,2.3 C 2.9,27.3 0,24.4 0,17.7 0,10.9 2.8,8.1 8.1,8.1 Z M 7.4,7.2 C 7,7.2 6.8,7.1 6.5,6.7 L 4.1,3.6 C 4,3.5 4,3.3 4,3.2 l 1.8,0 c 0.4,0 0.5,0.1 0.9,0.4 L 8,4.8 9.2,3.7 C 9.6,3.3 9.8,3.3 10.1,3.3 l 1.9,0 c 0,0.1 0,0.3 -0.1,0.4 l -2.4,3 C 9.2,7.1 9,7.2 8.6,7.2 l -1.2,0 z m 7.4,2.7 c 0,-1.1 0.5,-1.7 1.6,-1.7 l 10.4,0 0,2.3 c 0,1.1 -0.6,1.7 -1.7,1.7 l -5.6,0 0,3.4 6.2,0 0,3.8 -6.2,0 0,3.7 7.4,0 0,2.3 c 0,1.1 -0.6,1.7 -1.7,1.7 l -8.8,0 c -1.1,0 -1.6,-0.6 -1.6,-1.7 l 0,-15.5 z m 20,-1.8 c 3.9,0 6,0.4 6,2.3 l 0,1.9 -5.4,0 c -1.4,0 -1.9,0.4 -1.9,1.2 0,2.3 8.2,1.8 8.2,8.2 0,3 -1.7,5.7 -7.1,5.7 -3.5,0 -6.2,-0.6 -6.2,-2.3 l 0,-1.9 6.4,0 c 1.3,0 1.9,-0.4 1.9,-1.3 0,-2.5 -8.2,-2 -8.2,-8.6 0,-2.9 1.9,-5.2 6.3,-5.2 z m 13.7,8.8 4.7,-7.8 c 0.4,-0.8 0.7,-0.9 1.3,-0.9 l 4.5,0 C 59,8.5 58.9,8.7 58.8,9 l -5.4,8.3 5.7,9 c 0.1,0.2 0.3,0.5 0.3,0.8 l -4.4,0 c -0.9,0 -1.2,-0.1 -1.7,-0.9 l -4.9,-7.8 0,8.6 -4.7,0 0,-17.1 c 0,-1.1 0.5,-1.7 1.6,-1.7 l 3.1,0 0,8.7 z M 70,8.2 c 0.8,0 1.2,0.1 1.4,0.8 l 4.4,17.5 c 0.1,0.3 0.1,0.5 0.1,0.7 l -3.9,0 c -0.8,0 -1,-0.1 -1.2,-0.7 l -0.9,-3.8 -4.4,0 -0.9,3.8 c -0.1,0.7 -0.4,0.7 -1.2,0.7 l -3.8,0 c 0,-0.2 0,-0.4 0.1,-0.7 L 64.1,9 c 0.2,-0.7 0.6,-0.8 1.4,-0.8 l 4.5,0 z m -3.8,10.9 2.9,0 -1.4,-6.1 -0.1,0 -1.4,6.1 z m 3,-12.3 c -0.4,0.4 -0.6,0.4 -0.9,0.4 l -1.8,0 c 0,-0.1 0,-0.3 0.1,-0.4 L 69,3.7 c 0.3,-0.4 0.5,-0.5 0.9,-0.5 l 1.8,0 c 0.2,0 0.3,0.1 0.3,0.2 0,0.1 -0.1,0.2 -0.3,0.5 L 69.2,6.8 Z M 2.6,33.3 c 1.3,0 2.2,0 2.2,0.7 l 0,0.4 -2.2,0 c -0.7,0 -1.1,0.3 -1.1,0.8 0,1.5 3.7,1.1 3.7,3.6 0,1.2 -0.8,2.1 -2.9,2.1 -1.2,0 -2.3,0 -2.3,-0.6 l 0,-0.4 2.5,0 c 0.9,0 1.3,-0.3 1.3,-1 0,-1.4 -3.7,-1.1 -3.7,-3.6 0,-1.3 0.9,-2 2.5,-2 z m 5,9.7 -1.3,0 0,-9.6 0.7,0 c 0.5,0 0.7,0.3 0.7,0.6 l 0,0.2 c 0.4,-0.5 1.1,-0.9 1.9,-0.9 1.7,0 2.6,1.4 2.6,3.8 0,2.3 -0.8,3.8 -2.6,3.8 -0.8,0 -1.5,-0.4 -1.9,-0.9 l 0,3 z M 9.1,34.4 C 8.5,34.4 8,34.7 7.6,35 l 0,4.1 c 0.4,0.4 0.9,0.6 1.5,0.6 1.2,0 1.6,-0.9 1.6,-2.7 0,-1.6 -0.5,-2.6 -1.6,-2.6 z m 3.9,2.7 c 0,-2.1 0.7,-3.8 3,-3.8 2.3,0 3,1.7 3,3.8 0,2.1 -0.7,3.8 -3,3.8 -2.3,0 -3,-1.7 -3,-3.8 z m 4.6,0 c 0,-1.8 -0.4,-2.8 -1.6,-2.8 -1.3,0 -1.6,1 -1.6,2.8 0,1.8 0.4,2.8 1.6,2.8 1.3,0 1.6,-1 1.6,-2.8 z m 4.1,-4.4 c -0.2,0 -0.3,0 -0.4,-0.3 L 20.1,31 C 20,31 20,30.9 20,30.9 l 0.6,0 c 0.2,0 0.3,0 0.5,0.2 l 0.8,0.7 0.8,-0.7 c 0.2,-0.2 0.3,-0.2 0.5,-0.2 l 0.6,0 c 0,0.1 0,0.1 -0.1,0.2 l -1.2,1.4 c -0.2,0.2 -0.3,0.3 -0.4,0.3 l -0.4,0 z m -1.4,8.1 0,-7.4 0.7,0 c 0.4,0 0.6,0.4 0.7,0.9 0.6,-0.8 1.3,-1 1.9,-1 0.3,0 0.5,0.1 0.5,0.4 l 0,0.9 -0.4,0 c -1.1,0 -1.6,0.3 -2.1,0.6 l 0,5.5 -1.3,0 z m 5.7,-8.2 -1.3,0 0,-0.8 c 0,-0.4 0.2,-0.7 0.6,-0.7 l 0.7,0 0,1.5 z m -1.3,0.8 0.7,0 c 0.5,0 0.6,0.3 0.6,0.7 l 0,6.7 -1.3,0 0,-7.4 z m 4.6,0 1.6,0 0,1 -1.6,0 0,4.5 c 0,0.6 0.1,0.9 0.5,0.9 l 1.1,0 0,0.3 c 0,0.6 -0.5,0.7 -1.3,0.7 -1.5,0 -1.7,-0.8 -1.7,-1.9 l 0,-4.5 -0.9,0 0,-0.7 0.9,-0.3 0.5,-1.2 c 0.1,-0.3 0.3,-0.4 0.5,-0.4 l 0.3,0 0,1.6 z m 7.4,6.4 0,0.3 c 0,0.6 -0.8,0.7 -2.4,0.7 -2.3,0 -3,-1.7 -3,-3.8 0,-2.1 0.8,-3.8 3,-3.8 1.8,0 2.8,1.1 2.8,2.8 0,0.3 0,0.7 -0.1,1.4 l -4.3,0 c 0,1.7 0.6,2.4 1.8,2.4 l 2.2,0 z m -1,-3.3 c 0,-0.1 0,-0.4 0,-0.6 0,-0.7 -0.3,-1.6 -1.4,-1.6 -1,0 -1.6,0.7 -1.6,2.2 l 3,0 z m 3.9,4.3 -1.3,0 0,-9.1 c 0,-0.4 0.2,-0.7 0.6,-0.7 l 0.7,0 0,9.8 z m 1.6,0 0,-7.4 0.7,0 c 0.5,0 0.7,0.3 0.7,0.6 l 0,0.3 c 0.6,-0.7 1.4,-0.9 2.1,-0.9 1.4,0 2.1,0.9 2.1,2.3 l 0,5.2 -1.3,0 0,-5.1 c 0,-0.9 -0.5,-1.2 -1.3,-1.2 -0.6,0 -1.1,0.3 -1.6,0.6 l 0,5.8 -1.4,0 z m 11.7,0 c -0.5,0 -0.7,-0.3 -0.7,-0.6 l 0,-0.2 c -0.6,0.7 -1.4,0.9 -2.1,0.9 -1.3,0 -2.2,-0.8 -2.2,-2.1 0,-1.9 2,-2.3 4.2,-2.4 l 0,-0.7 c 0,-1 -0.7,-1.3 -1.6,-1.3 l -2.1,0 0,-0.4 c 0,-0.7 0.8,-0.7 2.3,-0.7 1.7,0 2.7,0.7 2.7,2.3 l 0,5.2 -0.5,0 z m -0.6,-3.6 c -2,0 -2.8,0.5 -2.8,1.4 0,0.8 0.6,1.1 1.3,1.1 0.6,0 1.1,-0.3 1.5,-0.6 l 0,-1.9 z"
       class="st1" /></g></svg>